<?xml version="1.0" standalone="no"?>
<svg xmlns:xlink="http://www.w3.org/1999/xlink" id="wave" style="transform:rotate(180deg); transition: 0.3s" viewBox="0 0 1440 160" version="1.1" xmlns="http://www.w3.org/2000/svg"><defs><linearGradient id="sw-gradient-0" x1="0" x2="0" y1="1" y2="0"><stop stop-color="rgba(15, 0, 37, 1)" offset="0%"/><stop stop-color="rgba(15, 0, 37, 1)" offset="100%"/></linearGradient></defs><path style="transform:translate(0, 0px); opacity:1" fill="url(#sw-gradient-0)" d="M0,128L40,120C80,112,160,96,240,82.7C320,69,400,59,480,53.3C560,48,640,48,720,53.3C800,59,880,69,960,85.3C1040,101,1120,123,1200,114.7C1280,107,1360,69,1440,64C1520,59,1600,85,1680,104C1760,123,1840,133,1920,128C2000,123,2080,101,2160,101.3C2240,101,2320,123,2400,109.3C2480,96,2560,48,2640,34.7C2720,21,2800,43,2880,66.7C2960,91,3040,117,3120,114.7C3200,112,3280,80,3360,80C3440,80,3520,112,3600,114.7C3680,117,3760,91,3840,69.3C3920,48,4000,32,4080,45.3C4160,59,4240,101,4320,120C4400,139,4480,133,4560,125.3C4640,117,4720,107,4800,93.3C4880,80,4960,64,5040,58.7C5120,53,5200,59,5280,56C5360,53,5440,43,5520,32C5600,21,5680,11,5720,5.3L5760,0L5760,160L5720,160C5680,160,5600,160,5520,160C5440,160,5360,160,5280,160C5200,160,5120,160,5040,160C4960,160,4880,160,4800,160C4720,160,4640,160,4560,160C4480,160,4400,160,4320,160C4240,160,4160,160,4080,160C4000,160,3920,160,3840,160C3760,160,3680,160,3600,160C3520,160,3440,160,3360,160C3280,160,3200,160,3120,160C3040,160,2960,160,2880,160C2800,160,2720,160,2640,160C2560,160,2480,160,2400,160C2320,160,2240,160,2160,160C2080,160,2000,160,1920,160C1840,160,1760,160,1680,160C1600,160,1520,160,1440,160C1360,160,1280,160,1200,160C1120,160,1040,160,960,160C880,160,800,160,720,160C640,160,560,160,480,160C400,160,320,160,240,160C160,160,80,160,40,160L0,160Z"/></svg>